<?xml version="1.0" standalone="no"?>
<!DOCTYPE svg PUBLIC "-//W3C//DTD SVG 20010904//EN"
 "http://www.w3.org/TR/2001/REC-SVG-20010904/DTD/svg10.dtd">
<svg version="1.0" xmlns="http://www.w3.org/2000/svg"
 width="860.000000pt" height="757.000000pt" viewBox="0 0 860.000000 757.000000"
 preserveAspectRatio="xMidYMid meet">

<g transform="translate(0.000000,757.000000) scale(0.100000,-0.100000)"
fill="#589f99" stroke="none">
<path d="M3110 7158 c-606 -26 -1218 -258 -1710 -648 -124 -98 -368 -340 -464
-460 -564 -707 -765 -1616 -551 -2489 124 -503 371 -943 743 -1323 82 -84 121
-131 116 -139 -4 -7 -128 -186 -276 -397 -148 -211 -275 -397 -283 -413 -72
-139 39 -319 198 -319 15 0 390 104 833 230 l805 231 112 -25 c182 -41 328
-57 565 -63 398 -10 713 38 1073 163 318 111 625 280 889 490 119 95 383 361
470 474 265 345 432 684 535 1086 94 363 110 816 44 1189 -119 666 -453 1244
-985 1704 -330 286 -745 503 -1179 616 -310 81 -586 108 -935 93z m525 -462
c827 -123 1522 -611 1896 -1331 187 -360 272 -709 272 -1115 0 -400 -83 -745
-264 -1101 -330 -648 -951 -1131 -1668 -1300 -390 -92 -862 -88 -1231 11 -41
11 -95 20 -120 19 -28 0 -242 -56 -565 -149 -285 -82 -521 -148 -522 -146 -2
2 63 97 144 212 179 254 193 280 193 353 -1 88 -24 126 -141 227 -504 433
-794 971 -870 1609 -15 130 -15 413 0 540 57 463 242 899 534 1260 79 98 277
295 372 370 392 312 861 503 1360 554 123 13 488 5 610 -13z"/>
<path d="M3205 6035 c-456 -84 -822 -458 -890 -912 -26 -172 -17 -241 37 -308
98 -119 294 -98 365 39 8 16 21 79 29 139 24 197 68 291 194 417 53 53 108 97
145 117 200 104 423 108 624 11 68 -32 101 -57 171 -127 72 -71 94 -101 128
-171 67 -143 82 -246 58 -390 -45 -259 -237 -462 -501 -529 -22 -6 -90 -15
-150 -20 -203 -18 -329 -86 -412 -221 -48 -78 -53 -124 -53 -441 l0 -297 28
-53 c81 -155 307 -158 390 -5 14 26 18 71 22 301 l5 270 99 7 c554 39 995 486
1023 1035 16 311 -87 588 -305 815 -165 171 -373 283 -601 323 -101 18 -309
18 -406 0z"/>
<path d="M3108 2938 c-20 -5 -55 -26 -78 -46 -145 -124 -82 -349 108 -385 86
-17 195 43 233 127 25 55 24 136 -1 185 -26 53 -92 107 -145 120 -51 13 -66
13 -117 -1z"/>
<path d="M6319 5822 c-68 -36 -110 -99 -117 -176 -6 -72 12 -121 63 -171 36
-37 58 -47 171 -84 744 -239 1295 -907 1400 -1696 21 -159 21 -407 0 -559 -73
-516 -335 -982 -743 -1319 -63 -52 -85 -78 -103 -119 -39 -90 -30 -125 94
-357 59 -112 106 -204 104 -206 -2 -1 -178 60 -393 136 -244 86 -405 138 -430
139 -22 0 -85 -11 -140 -25 -200 -48 -310 -60 -585 -59 -346 1 -463 22 -680
121 -89 40 -140 49 -198 33 -53 -14 -119 -72 -143 -125 -37 -80 -16 -188 47
-247 69 -65 336 -164 535 -200 111 -20 158 -22 439 -23 327 0 413 7 629 54
l82 18 262 -93 c144 -51 428 -151 631 -223 399 -142 431 -149 511 -112 49 22
99 77 115 126 7 21 10 63 8 94 -4 50 -24 94 -205 431 l-201 375 121 125 c739
759 916 1890 446 2856 -191 394 -507 753 -879 997 -218 143 -626 317 -744 317
-28 0 -62 -10 -97 -28z"/>
</g>
</svg>
